<svg width="20" height="20" viewBox="0 0 20 20" fill="none" xmlns="http://www.w3.org/2000/svg">
<path d="M1.72353 19.1629L18.9592 1.92715C19.2764 1.61 19.2763 1.09523 18.9592 0.778132C18.6421 0.460982 18.1273 0.461028 17.8102 0.778132L0.574509 18.0138C0.257359 18.331 0.257407 18.8458 0.57451 19.1629C0.891612 19.48 1.40643 19.48 1.72353 19.1629Z" fill="#444444"/>
<path d="M18.9591 17.8102L1.72344 0.574509C1.40628 0.257359 0.891522 0.257404 0.574423 0.574502C0.257325 0.891601 0.257328 1.40641 0.57443 1.72351L17.8101 18.9592C18.1273 19.2764 18.6421 19.2763 18.9591 18.9592C19.2762 18.6421 19.2763 18.1274 18.9591 17.8102Z" fill="#444444"/>
</svg>
