<svg width="26" height="14" viewBox="0 0 26 14" fill="none" xmlns="http://www.w3.org/2000/svg">
<path d="M0.812479 2.12499H25.1875C25.636 2.12499 25.9999 1.76096 25.9999 1.31251C25.9999 0.863992 25.6359 0.500031 25.1875 0.500031H0.812479C0.363961 0.500031 0 0.864059 0 1.31251C0 1.76096 0.364028 2.12499 0.812479 2.12499Z" fill="#444444"/>
<path d="M25.1875 6.18753H0.812479C0.363961 6.18753 0 6.55155 0 7C0 7.44844 0.364028 7.81247 0.812479 7.81247H25.1875C25.636 7.81247 25.9999 7.44844 25.9999 7C25.9999 6.55155 25.636 6.18753 25.1875 6.18753Z" fill="#444444"/>
<path d="M25.1875 11.875H8.93748C8.48896 11.875 8.125 12.239 8.125 12.6875C8.125 13.136 8.48903 13.5 8.93748 13.5H25.1875C25.636 13.5 25.9999 13.1359 25.9999 12.6875C26 12.239 25.636 11.875 25.1875 11.875Z" fill="#444444"/>
</svg>
